<svg width="149" height="64" viewBox="0 0 149 64" fill="none" xmlns="http://www.w3.org/2000/svg">
<path d="M1.32 30.42C1.32 27.6467 1.92 25.18 3.12 23.02C4.32 20.8333 5.98667 19.14 8.12 17.94C10.28 16.7133 12.72 16.1 15.44 16.1C18.7733 16.1 21.6267 16.98 24 18.74C26.3733 20.5 27.96 22.9 28.76 25.94H21.24C20.68 24.7667 19.88 23.8733 18.84 23.26C17.8267 22.6467 16.6667 22.34 15.36 22.34C13.2533 22.34 11.5467 23.0733 10.24 24.54C8.93333 26.0067 8.28 27.9667 8.28 30.42C8.28 32.8733 8.93333 34.8333 10.24 36.3C11.5467 37.7667 13.2533 38.5 15.36 38.5C16.6667 38.5 17.8267 38.1933 18.84 37.58C19.88 36.9667 20.68 36.0733 21.24 34.9H28.76C27.96 37.94 26.3733 40.34 24 42.1C21.6267 43.8333 18.7733 44.7 15.44 44.7C12.72 44.7 10.28 44.1 8.12 42.9C5.98667 41.6733 4.32 39.98 3.12 37.82C1.92 35.66 1.32 33.1933 1.32 30.42ZM43.1088 44.82C40.9221 44.82 38.9488 44.3533 37.1888 43.42C35.4554 42.4867 34.0821 41.1533 33.0688 39.42C32.0821 37.6867 31.5888 35.66 31.5888 33.34C31.5888 31.0467 32.0954 29.0333 33.1087 27.3C34.1221 25.54 35.5088 24.1933 37.2688 23.26C39.0288 22.3267 41.0021 21.86 43.1888 21.86C45.3754 21.86 47.3488 22.3267 49.1088 23.26C50.8688 24.1933 52.2554 25.54 53.2688 27.3C54.2821 29.0333 54.7888 31.0467 54.7888 33.34C54.7888 35.6333 54.2688 37.66 53.2288 39.42C52.2154 41.1533 50.8154 42.4867 49.0288 43.42C47.2688 44.3533 45.2954 44.82 43.1088 44.82ZM43.1088 38.9C44.4154 38.9 45.5221 38.42 46.4288 37.46C47.3621 36.5 47.8288 35.1267 47.8288 33.34C47.8288 31.5533 47.3754 30.18 46.4688 29.22C45.5888 28.26 44.4954 27.78 43.1888 27.78C41.8554 27.78 40.7488 28.26 39.8688 29.22C38.9888 30.1533 38.5488 31.5267 38.5488 33.34C38.5488 35.1267 38.9754 36.5 39.8288 37.46C40.7088 38.42 41.8021 38.9 43.1088 38.9ZM65.2575 25.9C66.0575 24.6733 67.0575 23.7133 68.2575 23.02C69.4575 22.3 70.7908 21.94 72.2575 21.94V29.18H70.3775C68.6708 29.18 67.3908 29.5533 66.5375 30.3C65.6842 31.02 65.2575 32.3 65.2575 34.14V44.5H58.4175V22.18H65.2575V25.9ZM89.1269 21.94C91.7402 21.94 93.8202 22.7933 95.3669 24.5C96.9402 26.18 97.7269 28.5 97.7269 31.46V44.5H90.9269V32.38C90.9269 30.8867 90.5402 29.7267 89.7669 28.9C88.9935 28.0733 87.9535 27.66 86.6469 27.66C85.3402 27.66 84.3002 28.0733 83.5269 28.9C82.7535 29.7267 82.3669 30.8867 82.3669 32.38V44.5H75.5269V22.18H82.3669V25.14C83.0602 24.1533 83.9935 23.38 85.1669 22.82C86.3402 22.2333 87.6602 21.94 89.1269 21.94ZM123.52 32.98C123.52 33.62 123.48 34.2867 123.4 34.98H107.92C108.027 36.3667 108.467 37.4333 109.24 38.18C110.04 38.9 111.013 39.26 112.16 39.26C113.867 39.26 115.053 38.54 115.72 37.1H123C122.627 38.5667 121.947 39.8867 120.96 41.06C120 42.2333 118.787 43.1533 117.32 43.82C115.853 44.4867 114.213 44.82 112.4 44.82C110.213 44.82 108.267 44.3533 106.56 43.42C104.853 42.4867 103.52 41.1533 102.56 39.42C101.6 37.6867 101.12 35.66 101.12 33.34C101.12 31.02 101.587 28.9933 102.52 27.26C103.48 25.5267 104.813 24.1933 106.52 23.26C108.227 22.3267 110.187 21.86 112.4 21.86C114.56 21.86 116.48 22.3133 118.16 23.22C119.84 24.1267 121.147 25.42 122.08 27.1C123.04 28.78 123.52 30.74 123.52 32.98ZM116.52 31.18C116.52 30.0067 116.12 29.0733 115.32 28.38C114.52 27.6867 113.52 27.34 112.32 27.34C111.173 27.34 110.2 27.6733 109.4 28.34C108.627 29.0067 108.147 29.9533 107.96 31.18H116.52Z" fill="#15253D"/>
<path fill-rule="evenodd" clip-rule="evenodd" d="M129.999 22V28H130L130 44H136L136 28L147.999 28V22L136 22H130H129.999Z" fill="#983094"/>
<rect x="140.014" y="36" width="8" height="8" fill="#983094"/>
</svg>
