<svg width="69" height="72" viewBox="0 0 69 72" fill="none" xmlns="http://www.w3.org/2000/svg">
<path fill-rule="evenodd" clip-rule="evenodd" d="M34.4999 67.5214C52.7372 67.5214 67.5214 52.7372 67.5214 34.5C67.5214 16.2628 52.7372 1.47858 34.4999 1.47858C16.2627 1.47858 1.47852 16.2628 1.47852 34.5C1.47852 52.7372 16.2627 67.5214 34.4999 67.5214Z" fill="#E7EEFF"/>
<mask id="mask0" mask-type="alpha" maskUnits="userSpaceOnUse" x="1" y="1" width="67" height="67">
<path fill-rule="evenodd" clip-rule="evenodd" d="M34.4999 67.5214C52.7372 67.5214 67.5214 52.7372 67.5214 34.5C67.5214 16.2628 52.7372 1.47858 34.4999 1.47858C16.2627 1.47858 1.47852 16.2628 1.47852 34.5C1.47852 52.7372 16.2627 67.5214 34.4999 67.5214Z" fill="white"/>
</mask>
<g mask="url(#mask0)">
<path fill-rule="evenodd" clip-rule="evenodd" d="M46.1231 29.2184C46.2811 27.4626 46.518 22.4162 44.4874 19.1043C42.0061 15.0819 37.9334 13.907 34.4901 13.962C31.0444 13.907 26.9717 15.0819 24.4903 19.1043C22.4444 22.4256 22.6885 27.4913 22.8464 29.2333C22.8454 29.2532 22.8454 29.2732 22.8464 29.2931C22.8799 29.64 22.9087 29.841 22.9087 29.841C22.9106 29.8679 22.914 29.8947 22.9175 29.9215C22.9226 29.9617 22.9278 30.0019 22.9278 30.042C22.9469 30.2239 22.9685 30.4034 22.99 30.578C23.1152 31.6101 23.3233 32.6303 23.6122 33.6289L23.7773 34.153C23.8802 34.4784 23.9902 34.7967 24.1003 35.1101C24.1793 35.3207 24.2606 35.5337 24.3396 35.7394C24.3782 35.8457 24.4184 35.9426 24.4589 36.0403L24.4593 36.0411C24.4646 36.0538 24.4698 36.0665 24.4751 36.0793C24.4794 36.0896 24.4837 36.0999 24.4879 36.1103C25.156 37.8003 26.0916 39.3717 27.2589 40.7644L27.2708 40.7783V49.082C27.4599 50.3 30.6208 51.2571 34.4997 51.2571C38.3785 51.2571 41.5394 50.2952 41.7285 49.082V40.7475L41.7404 40.7333C42.8985 39.3494 43.8267 37.7886 44.4898 36.1103C44.5143 36.0463 44.5388 35.9867 44.5629 35.9279C44.5884 35.8658 44.6136 35.8045 44.6382 35.7394C44.7073 35.5647 44.7746 35.3848 44.8417 35.2055L44.8419 35.205L44.8775 35.1101L44.8801 35.1021C46.0457 35.3661 47.5715 35.1153 48.4763 33.7342C49.6632 31.9252 49.1272 29.932 47.859 29.329C47.3166 29.0677 46.6939 29.0282 46.1231 29.2184ZM41.2212 41.3124L41.2424 41.2903C41.2527 41.2795 41.263 41.2686 41.2733 41.2577C41.2582 41.2752 41.2432 41.2927 41.2284 41.31C40.6216 41.9527 39.9423 42.5229 39.204 43.0089C38.5674 43.4403 37.8777 43.7795 37.1554 44.0199C37.8751 43.7796 38.5624 43.4413 39.1968 43.0113C39.9351 42.5252 40.6144 41.9551 41.2212 41.3124Z" fill="#FFC7BB"/>
<path d="M20.4871 33.7438C21.394 35.1317 22.9302 35.3781 24.0979 35.1077C23.9256 34.6292 23.7581 34.1354 23.5954 33.6265C23.3292 32.7094 23.1325 31.7736 23.0068 30.8269C22.9709 30.5709 22.9398 30.31 22.9111 30.0444C22.9011 29.9778 22.8948 29.9107 22.8919 29.8434C22.8919 29.8434 22.868 29.6927 22.8417 29.4271C22.8297 29.3864 22.8297 29.3409 22.8297 29.2955C22.8285 29.2748 22.8285 29.254 22.8297 29.2333C22.3644 29.0794 21.8628 29.0736 21.394 29.2165C21.2893 29.2503 21.187 29.2911 21.0877 29.3385C19.8338 29.932 19.2907 31.9252 20.4871 33.7438Z" fill="#FFC7BB"/>
<path d="M7.41493 57.871C11.9949 53.784 19.3433 51.3146 23.9256 49.989L24.1051 49.9363C25.4619 49.5439 26.5626 49.2567 27.2541 49.0605C27.4432 50.2737 30.6041 51.2356 34.4805 51.2356C38.357 51.2356 41.5203 50.2785 41.7118 49.0605H41.75C42.4344 49.2567 43.5256 49.5391 44.8727 49.9291L45.0354 49.977C49.6082 51.3002 56.9686 53.7721 61.5605 57.8734C63.9482 60.0116 66.4685 64.4706 68.6416 69.0767H0.328979C2.50233 64.4658 5.02441 60.0016 7.41493 57.871Z" fill="#8AB99E"/>
<g style="mix-blend-mode:soft-light" opacity="0.4">
<path d="M38.881 53.6955C37.4366 54.0185 35.9606 54.179 34.4806 54.174C29.5848 54.174 25.4284 52.5493 23.9233 50.0153L24.1027 49.9626C25.4595 49.5702 26.5602 49.2831 27.2517 49.0868C27.4408 50.3 30.6017 51.2619 34.4782 51.2619C38.3546 51.2619 41.518 50.3048 41.7094 49.0868H41.7477C42.432 49.2831 43.5232 49.5654 44.8703 49.9554L45.0331 50.0033C44.2937 51.2572 42.9082 52.2885 41.104 53.0111" fill="white"/>
</g>
<g style="mix-blend-mode:soft-light" opacity="0.4">
<path d="M38.881 53.6955C37.4366 54.0185 35.9606 54.179 34.4806 54.174C29.5848 54.174 25.4284 52.5493 23.9233 50.0153L24.1027 49.9626C25.4595 49.5702 26.5602 49.2831 27.2517 49.0868C27.4408 50.3 30.6017 51.2619 34.4782 51.2619C38.3546 51.2619 41.518 50.3048 41.7094 49.0868H41.7477C42.432 49.2831 43.5232 49.5654 44.8703 49.9554L45.0331 50.0033C44.2937 51.2572 42.9082 52.2885 41.104 53.0111" fill="white"/>
</g>
<g style="mix-blend-mode:multiply" opacity="0.15">
<path fill-rule="evenodd" clip-rule="evenodd" d="M41.2571 41.2622V47.9119C34.7964 48.022 29.9819 44.9041 27.7255 43.0664V41.2861L27.7518 41.3148C28.3586 41.9568 29.0379 42.5261 29.7761 43.0114C31.0982 43.9075 32.6494 44.4058 34.246 44.4471H34.7126C36.31 44.4062 37.8622 43.9079 39.1849 43.0114C39.9234 42.5247 40.6035 41.9547 41.2116 41.3124L41.2571 41.2622Z" fill="#7C3830"/>
</g>
<path fill-rule="evenodd" clip-rule="evenodd" d="M34.6543 13.484L34.4949 13.4859C31.87 13.438 27.022 14.0841 24.0788 18.8554C22.2307 21.8543 22.1697 26.1258 22.3061 28.4612L22.3176 28.6463C21.9579 28.6178 21.594 28.6579 21.2457 28.7667C21.1236 28.8082 21.0038 28.8561 20.8867 28.9102C20.1858 29.2682 19.6732 29.9109 19.4797 30.6738C19.1924 31.8216 19.4149 33.0376 20.0899 34.0094C20.7793 35.0784 21.9744 35.7127 23.2461 35.6844L23.3818 35.6822C23.5173 35.6779 23.6526 35.6672 23.7871 35.6501L23.885 35.9069C23.9352 36.0361 23.9855 36.163 24.0381 36.2898C24.6993 37.964 25.6169 39.5246 26.7578 40.9157L26.7755 40.937V48.7171L26.2013 48.8762C25.6674 49.0207 25.0162 49.1981 24.2831 49.4086L23.964 49.5008L23.7893 49.551C16.0723 51.7931 10.6118 54.3941 7.09191 57.536C4.62065 59.7423 2.03798 64.3126 -0.196472 69.0768H69.19C65.7636 61.7851 63.2744 58.7707 61.8932 57.536C58.4435 54.4563 53.1326 51.8855 45.6801 49.6845L45.2531 49.5592C45.2376 49.5525 45.2217 49.5465 45.2054 49.5414L45.0331 49.4912C44.6056 49.3687 44.2039 49.2557 43.8325 49.1526L42.9298 48.9049L42.207 48.7045L42.2072 40.9256C43.3507 39.5341 44.2703 37.9725 44.9326 36.297C44.9852 36.1701 45.0379 36.0433 45.0857 35.9141L45.185 35.6498C45.3622 35.6724 45.5409 35.684 45.7198 35.6844C46.9942 35.7091 48.1898 35.0692 48.876 33.995L48.9327 33.911C49.5623 32.9524 49.7641 31.7728 49.4862 30.657C49.2921 29.8963 48.7805 29.2558 48.0816 28.8983C47.9334 28.8278 47.7797 28.7694 47.6221 28.7236C47.3053 28.638 46.9778 28.6079 46.6539 28.633C46.8026 26.3404 46.784 21.9294 44.8919 18.8554C42.0075 14.1795 37.3008 13.4678 34.6543 13.484ZM37.1512 51.5944C39.8777 51.2801 41.4776 50.4843 42.0181 49.6467L42.6785 49.8286C42.9754 49.9093 43.3024 49.9987 43.6576 50.0975L44.2937 50.276C43.571 51.1877 42.432 51.9702 40.9556 52.5636L40.9186 52.5789C40.774 52.6459 40.6713 52.7813 40.6469 52.9405C40.6205 53.1131 40.69 53.2864 40.8285 53.3927C40.967 53.499 41.1523 53.5215 41.3122 53.4514C43.1018 52.7324 44.4611 51.7388 45.2733 50.5597C52.5643 52.7003 57.9415 55.287 61.2567 58.2466C63.3872 60.1491 65.6495 64.0083 67.6557 68.1196H1.33459C3.33555 64.0191 5.60097 60.1488 7.73559 58.2466C10.9734 55.3612 16.1813 52.8259 23.238 50.709L23.722 50.5653C25.4478 53.057 29.6133 54.6478 34.4925 54.6478C36.0114 54.6522 37.526 54.486 39.0079 54.1525C39.2656 54.0937 39.4268 53.8371 39.368 53.5794C39.3092 53.3217 39.0526 53.1604 38.7949 53.2192C37.385 53.534 35.9442 53.6889 34.4997 53.6811C30.1064 53.6811 26.3688 52.3626 24.7129 50.2784L26.9945 49.6581C27.6983 50.7349 30.1494 51.7381 34.4925 51.7381C35.475 51.7381 36.3607 51.6866 37.1512 51.5944ZM39.4601 43.4157C38.06 44.3587 36.4194 44.8818 34.7318 44.9232H34.2269C32.5436 44.8785 30.9081 44.3539 29.513 43.4109C28.8768 42.9918 28.2823 42.5133 27.7373 41.9821L27.7332 48.9485C27.7399 48.9686 27.7453 48.9892 27.7495 49.0102C27.863 49.739 30.4312 50.7556 34.3688 50.7782L34.4877 50.7785C38.1241 50.7785 40.6247 49.9316 41.1492 49.2225C41.2022 49.15 41.2345 49.0788 41.2452 49.0102L41.2454 41.9755C40.6978 42.5112 40.1 42.9935 39.4601 43.4157ZM34.2724 14.4406L34.6445 14.437C37.0872 14.4296 41.4283 15.0759 44.0688 19.3532C45.9829 22.4608 45.7991 27.2857 45.6605 28.9878L45.6433 29.1878V29.2141L46.0935 29.2522H46.042L45.6433 29.2404C45.6205 29.4806 45.599 29.645 45.5891 29.7205L45.589 29.7209C45.5878 29.73 45.5868 29.7377 45.586 29.7441C45.5843 29.7571 45.5834 29.7647 45.5834 29.7669V29.8004C45.5817 29.822 45.579 29.8434 45.5763 29.865C45.5716 29.903 45.5667 29.9419 45.5667 29.9846C45.4496 31.1684 45.2261 32.3392 44.8991 33.483C44.7483 33.9759 44.588 34.4688 44.4205 34.933L44.3607 35.0934C44.332 35.1771 44.2991 35.2668 44.2677 35.3506L44.1836 35.5719C44.1381 35.6916 44.0903 35.8112 44.04 35.9309C43.3962 37.5621 42.4946 39.0794 41.3696 40.4246L41.4065 40.3793C41.3999 40.3853 41.3934 40.3915 41.3871 40.3979C41.3795 40.4057 41.372 40.4138 41.3648 40.4223C41.1878 40.6304 41.025 40.8147 40.8623 40.9822L40.7271 41.1231C40.1813 41.6816 39.5769 42.18 38.9241 42.6093L38.8103 42.685L38.6953 42.7588C38.0325 43.1624 37.4006 43.4328 36.8365 43.6137C36.1514 43.8265 35.437 43.946 34.7127 43.9661H34.2461C33.0725 43.9327 31.9253 43.6389 30.8858 43.1109C30.5946 42.9627 30.3119 42.7961 30.0394 42.6117C29.3333 42.1452 28.683 41.5993 28.1012 40.9846C27.9552 40.829 27.7973 40.6568 27.6226 40.4534C26.4881 39.0986 25.5791 37.5699 24.9307 35.9261C24.8828 35.8089 24.8349 35.6915 24.7871 35.5695C24.7033 35.3661 24.622 35.1556 24.5478 34.9522L24.5277 34.8945L24.5275 34.8941L24.5274 34.8937L24.5271 34.8928C24.527 34.8924 24.5268 34.892 24.5267 34.8917C24.4642 34.7125 24.4011 34.5318 24.3398 34.3496L24.2296 34.0118C24.1745 33.8395 24.1195 33.6672 24.0668 33.4949C23.7848 32.5213 23.5807 31.5267 23.4567 30.5206C23.4351 30.3483 23.4136 30.1713 23.3945 29.9918C23.3777 29.9296 23.3777 29.8698 23.3777 29.8075C23.3787 29.7964 23.3787 29.7852 23.3777 29.774L23.3226 29.3026L23.3227 29.238C23.3227 29.2011 23.3184 29.165 23.3101 29.1305C23.1721 27.5698 22.9202 22.5535 24.89 19.3579C27.5054 15.1154 31.7934 14.4406 34.2724 14.4406ZM46.6461 29.613L46.5764 29.6245L46.5509 29.8387L46.543 29.8937C46.5358 29.9366 46.5327 29.9861 46.5296 30.0354L46.5281 30.058C46.5275 30.0671 46.5269 30.0762 46.5262 30.0851C46.4291 31.0746 46.2606 32.0554 46.0224 33.0199C46.3439 33.0055 46.6443 32.8415 46.8301 32.5713C47.0605 32.2558 47.0982 31.839 46.9282 31.4873C46.8562 31.3763 46.8878 31.2279 46.9988 31.1559C47.1098 31.0839 47.2582 31.1155 47.3302 31.2265C47.5781 31.7038 47.5613 32.2753 47.286 32.7373C47.0107 33.1992 46.516 33.4858 45.9783 33.4949C45.9516 33.4967 45.925 33.4976 45.8983 33.4977L45.8227 33.7677C45.7241 34.0908 45.6217 34.412 45.5154 34.7283C46.5055 34.8167 47.4651 34.3665 48.0304 33.553L48.0744 33.4878C48.5974 32.7468 48.7761 31.8166 48.5649 30.9346C48.4453 30.4385 48.1185 30.0177 47.6676 29.7788C47.5684 29.7308 47.4651 29.6915 47.3589 29.6616C47.1527 29.604 46.938 29.5846 46.7256 29.6039L46.6461 29.613ZM21.5424 29.6735C21.7156 29.618 21.8965 29.5898 22.0766 29.5896L22.1529 29.5907C22.2321 29.5932 22.3112 29.6009 22.3895 29.6137L22.4086 29.7802C22.4129 29.8157 22.4171 29.8446 22.4215 29.8668L22.427 29.9285C22.4277 29.9344 22.4284 29.9402 22.4292 29.946C22.4308 29.9586 22.4325 29.9711 22.4342 29.9834C22.4395 30.0221 22.4445 30.0585 22.4445 30.0899C22.4732 30.3555 22.5043 30.6163 22.5402 30.8724C22.539 30.8787 22.539 30.8852 22.5402 30.8915C22.6339 31.606 22.7678 32.3145 22.9413 33.0139C22.5983 33.0163 22.2734 32.8495 22.076 32.5641C21.8482 32.2477 21.8106 31.8323 21.9779 31.4801C22.0495 31.3697 22.0185 31.2222 21.9085 31.1499C21.8553 31.1148 21.7902 31.1023 21.7277 31.1154C21.6653 31.1284 21.6106 31.1658 21.5759 31.2193C21.3251 31.6992 21.342 32.2749 21.6203 32.7393C21.8986 33.2036 22.3984 33.4899 22.9398 33.4949C22.9819 33.4957 23.0241 33.4943 23.0661 33.4908L23.066 33.4905L23.0977 33.4878C23.0872 33.4889 23.0766 33.4899 23.0661 33.4908C23.0911 33.5817 23.1168 33.6724 23.1432 33.7629C23.2413 34.0884 23.3418 34.4066 23.4471 34.7201C22.4282 34.8148 21.4404 34.3389 20.8796 33.483L20.8288 33.408C20.3497 32.6772 20.1937 31.7791 20.401 30.9274C20.5205 30.4293 20.8494 30.0071 21.3031 29.7693C21.3807 29.7322 21.4606 29.7002 21.5424 29.6735Z" fill="#372168"/>
<path fill-rule="evenodd" clip-rule="evenodd" d="M58.7322 58.998C57.8557 58.2236 56.9214 57.5172 55.9373 56.8851C55.8655 56.8385 55.7743 56.8338 55.6981 56.8727C55.6218 56.9116 55.5721 56.9882 55.5676 57.0737C55.5632 57.1592 55.6047 57.2405 55.6765 57.2871C56.6399 57.906 57.555 58.5972 58.4139 59.3545C58.4572 59.3939 58.5134 59.416 58.5719 59.4167C58.6406 59.4167 58.706 59.387 58.7513 59.3354C58.839 59.2369 58.8305 59.086 58.7322 58.998ZM23.0977 33.4878C23.0872 33.4889 23.0766 33.4899 23.0661 33.4908L23.066 33.4905L23.0977 33.4878Z" fill="#372168"/>
<path fill-rule="evenodd" clip-rule="evenodd" d="M42.2454 63.3818C41.4695 63.6871 40.6273 63.7844 39.8022 63.6641C37.6128 63.3626 34.7629 61.6852 28.2184 58.8401C28.1754 58.8186 28.1275 58.7994 28.082 58.7803C21.4084 55.8826 19.5347 53.3629 19.0442 51.9343C18.7459 51.0714 19.0447 50.1147 19.7812 49.575C20.275 49.2333 20.8298 48.9896 21.4155 48.8571C21.8249 48.7582 22.1141 48.3929 22.1166 47.9718C22.1166 47.4789 22.3105 46.761 23.0235 45.8804C23.995 44.7332 25.3985 44.0401 26.9 43.9661C26.905 43.9655 26.9102 43.9669 26.9142 43.97C26.9183 43.9732 26.9209 43.9778 26.9215 43.9829C26.9717 44.2006 27.6035 46.4523 32.126 47.6081C33.3726 47.9263 34.849 48.3666 36.3757 48.8715C40.6828 50.2928 45.4063 52.2215 46.5262 53.3725C46.7129 53.5663 46.8601 53.7947 46.9593 54.0448C48.06 56.6818 44.966 62.3672 42.2454 63.3818Z" fill="#8C9AD9"/>
<path fill-rule="evenodd" clip-rule="evenodd" d="M39.7353 64.1379C39.9904 64.1749 40.2479 64.1933 40.5058 64.193C41.1569 64.1913 41.8023 64.0713 42.4105 63.8388C44.241 63.1545 45.9591 60.7784 46.8516 58.7253C47.3422 57.5959 48.0672 55.4614 47.402 53.863C47.2797 53.5564 47.0984 53.2767 46.8684 53.0399C45.5834 51.7214 40.4938 49.7258 36.5264 48.4169C34.9735 47.9024 33.4923 47.4645 32.2456 47.1439C27.9385 46.0432 27.4073 43.9638 27.3857 43.8728C27.3316 43.643 27.1241 43.4824 26.888 43.4876C25.2437 43.562 23.7061 44.3234 22.6503 45.5861C21.8295 46.6031 21.6381 47.4454 21.6381 47.979C21.6397 48.1826 21.4993 48.3599 21.3007 48.4049C20.6539 48.5493 20.0417 48.8192 19.4989 49.1993C18.5912 49.8622 18.2231 51.0402 18.592 52.1019C19.1591 53.7577 21.2337 56.3396 27.881 59.2254L27.9648 59.2613L28.0294 59.29C30.2165 60.2424 32.0303 61.0751 33.466 61.7451L33.5834 61.7989C36.471 63.1237 38.2289 63.9302 39.7353 64.1379ZM23.3945 46.1844C24.2003 45.225 25.3421 44.6096 26.5865 44.4639C26.9407 45.2679 28.1515 47.0769 32.0088 48.0651C33.2339 48.3786 34.6935 48.8117 36.225 49.319C41.159 50.9461 45.2556 52.7432 46.184 53.7003C46.3283 53.851 46.4421 54.0281 46.519 54.222C46.8995 55.136 46.6913 56.677 45.9735 58.3377C45.0139 60.5415 43.4131 62.4342 42.0779 62.9343C41.3754 63.2091 40.6136 63.2973 39.8669 63.1904C38.4814 62.9989 36.7394 62.1949 33.868 60.8645C32.4155 60.1921 30.6089 59.3618 28.4219 58.4047L28.3381 58.3688L28.2735 58.3401C21.6022 55.4447 19.9105 52.9753 19.4965 51.7788C19.2644 51.1127 19.4957 50.3731 20.066 49.9579C20.5067 49.6537 21.0025 49.4383 21.5256 49.3238C22.1469 49.173 22.5871 48.6206 22.5953 47.9814C22.6024 47.6009 22.746 46.9812 23.3945 46.1844Z" fill="#372168"/>
<path fill-rule="evenodd" clip-rule="evenodd" d="M39.8022 63.6665C39.7783 67.7727 39.752 71.4146 39.7305 74.0204C30.8458 74.5636 24.945 70.3498 24.945 70.3498H24.8876C25.2561 65.3774 27.1369 61.0033 28.2208 58.8473C34.7629 61.6852 37.6128 63.3626 39.8022 63.6665Z" fill="#FFCB6D"/>
<path fill-rule="evenodd" clip-rule="evenodd" d="M24.7584 70.802C25.5241 71.3236 30.573 74.5468 38.1273 74.5468C38.6585 74.5468 39.204 74.5325 39.7544 74.5037C40.0074 74.4885 40.2047 74.2787 40.2043 74.0252C40.2258 71.4194 40.2521 67.7774 40.276 63.6713C40.2782 63.4303 40.1009 63.2252 39.8621 63.1927C38.4849 62.9991 36.7542 62.1986 33.8869 60.8725L33.8799 60.8693C33.8213 60.8422 33.7621 60.8148 33.7023 60.7872C32.2785 60.129 30.5249 59.3184 28.4099 58.3998C28.177 58.2994 27.9062 58.398 27.7925 58.6248C26.6894 60.8166 24.7847 65.2506 24.409 70.3067C24.3927 70.5339 24.5389 70.7411 24.7584 70.802ZM39.2662 73.5657C31.6976 73.8983 26.3807 70.711 25.3877 70.0698C25.7777 65.5975 27.3833 61.6517 28.4649 59.4598C30.3783 60.2998 31.9875 61.0435 33.3111 61.6552C33.3713 61.683 33.4309 61.7106 33.4899 61.7378C36.1771 62.9821 37.8975 63.7765 39.3332 64.0685C39.3093 67.7774 39.2878 71.0867 39.2662 73.5657Z" fill="#372168"/>
<path d="M40.2904 62.6137C40.1158 62.6138 39.9414 62.601 39.7688 62.5754C39.6366 62.5575 39.5439 62.4359 39.5618 62.3038C39.5796 62.1716 39.7012 62.079 39.8334 62.0968C40.3674 62.1744 40.9125 62.1117 41.415 61.915C41.535 61.8816 41.6605 61.9458 41.7036 62.0627C41.7467 62.1795 41.693 62.3099 41.5801 62.3624C41.169 62.5235 40.732 62.6086 40.2904 62.6137Z" fill="#372168"/>
<path d="M30.104 68.2393H30.0681C29.9383 68.2196 29.8486 68.0989 29.8671 67.9689C30.506 63.5349 32.2049 60.7472 32.2767 60.63C32.3506 60.5362 32.4824 60.5112 32.5855 60.5715C32.6886 60.6318 32.7314 60.7589 32.6859 60.8693C32.6668 60.898 30.9654 63.6952 30.3385 68.0263C30.3252 68.1463 30.2247 68.2376 30.104 68.2393Z" fill="#372168"/>
<path d="M34.3489 54.5665H34.3226C34.2771 54.5665 29.7355 54.0664 26.0864 51.8506C22.2219 49.5056 21.7792 48.6585 21.7386 48.57C21.6844 48.449 21.7385 48.3071 21.8594 48.2529C21.9803 48.1987 22.1223 48.2528 22.1765 48.3737C22.2028 48.4216 22.6813 49.2256 26.3352 51.4414C29.8934 53.595 34.3274 54.0735 34.3729 54.0903C34.505 54.0969 34.6068 54.2094 34.6002 54.3415C34.5936 54.4737 34.4811 54.5755 34.3489 54.5689V54.5665Z" fill="#372168"/>
<path fill-rule="evenodd" clip-rule="evenodd" d="M48.8831 52.5182C48.3261 53.1172 47.6805 53.6273 46.9688 54.0305C46.8696 53.7803 46.7225 53.5519 46.5357 53.3581C45.4159 52.2095 40.6948 50.2785 36.3853 48.8571C39.3979 47.7373 41.0178 44.4256 41.4342 43.4613C41.5091 43.2939 41.6857 43.1964 41.8673 43.222C42.5277 43.3105 44.0783 43.7628 45.5403 46.036C45.5403 46.036 47.6628 46.639 49.0602 48.314C50.0661 49.5607 49.9903 51.3604 48.8831 52.5182Z" fill="#BAACFF"/>
<path fill-rule="evenodd" clip-rule="evenodd" d="M46.8014 54.4899C46.8523 54.507 46.9056 54.5159 46.9593 54.5162C47.0481 54.5161 47.1351 54.4912 47.2106 54.4444C47.9696 54.0196 48.6574 53.4787 49.2493 52.8412C50.5301 51.5057 50.6103 49.4234 49.4359 47.9933C48.1749 46.493 46.4089 45.8062 45.8466 45.6148C44.3511 43.3823 42.7574 42.8558 41.9271 42.7434C41.5309 42.6916 41.1489 42.911 40.9939 43.2794C40.58 44.2174 39.0413 47.3616 36.2082 48.4145C36.0166 48.4847 35.8906 48.6686 35.8944 48.8727C35.8981 49.0767 36.0309 49.2559 36.225 49.319C41.159 50.9461 45.2556 52.7431 46.184 53.7003C46.3277 53.85 46.4407 54.0264 46.5166 54.2195C46.5685 54.3462 46.6721 54.4447 46.8014 54.4899ZM46.8684 53.0327C45.7031 51.8339 41.3959 50.0775 37.6439 48.7854C40.087 47.3449 41.4342 44.6433 41.8458 43.6886C42.4272 43.7795 43.8031 44.2198 45.1288 46.28C45.1916 46.3776 45.2877 46.449 45.3992 46.481C45.4183 46.4858 47.3948 47.0625 48.6822 48.6059C49.5523 49.6657 49.4895 51.2095 48.5362 52.1952C48.119 52.6394 47.6517 53.0336 47.1436 53.3701C47.0637 53.2484 46.9715 53.1354 46.8684 53.0327Z" fill="#372168"/>
<path d="M41.3743 50.9246C41.2626 50.925 41.1654 50.8481 41.1402 50.7393C41.115 50.6304 41.1685 50.5186 41.269 50.4699C43.5135 49.386 45.301 45.957 45.3178 45.9235C45.38 45.8101 45.5212 45.7667 45.6364 45.8256C45.7516 45.8845 45.7992 46.0244 45.7437 46.1413C45.6671 46.2896 43.8629 49.7473 41.4772 50.9007C41.4451 50.9162 41.41 50.9244 41.3743 50.9246Z" fill="#372168"/>
<path d="M35.8924 40.6126C35.8253 40.6131 35.761 40.5823 35.7153 40.5275C35.3815 40.2166 34.9539 40.0579 34.5189 40.0835C34.0866 40.0574 33.6608 40.2088 33.3225 40.5089C33.2645 40.5852 33.1729 40.619 33.0853 40.5963C32.9978 40.5736 32.9291 40.4983 32.9074 40.4014C32.8858 40.3045 32.9149 40.2022 32.9827 40.1367C33.8912 39.3473 35.1697 39.3583 36.0671 40.1633C36.1333 40.2405 36.1516 40.3543 36.1136 40.4522C36.0755 40.5501 35.9884 40.6133 35.8924 40.6126Z" fill="#372168"/>
<g style="mix-blend-mode:multiply" opacity="0.15">
<path fill-rule="evenodd" clip-rule="evenodd" d="M30.5466 33.846C30.5466 35.3066 29.4753 36.4907 28.1537 36.4907C26.8322 36.4907 25.7609 35.3066 25.7609 33.846C25.7609 32.3853 26.8322 31.2012 28.1537 31.2012C29.4753 31.2012 30.5466 32.3853 30.5466 33.846ZM43.468 33.846C43.468 35.3066 42.3967 36.4907 41.0751 36.4907C39.7536 36.4907 38.6823 35.3066 38.6823 33.846C38.6823 32.3853 39.7536 31.2012 41.0751 31.2012C42.3967 31.2012 43.468 32.3853 43.468 33.846Z" fill="#FF1300"/>
</g>
<path fill-rule="evenodd" clip-rule="evenodd" d="M44.6979 21.234C45.1343 20.6086 45.3901 19.8751 45.4373 19.1139C45.4488 18.8813 45.4456 18.6484 45.4276 18.4165C45.4469 18.6523 45.4509 18.8893 45.4397 19.1259C45.3925 19.8871 45.1367 20.6206 44.7003 21.246C44.6956 21.256 44.69 21.2657 44.6835 21.2747C44.3434 21.7548 43.9411 22.1877 43.4871 22.562C43.4252 22.6444 43.3546 22.7198 43.2765 22.787C44.1715 23.8949 45.6622 26.2351 45.9446 29.877C45.9446 29.877 50.6202 21.8538 45.4468 18.0778H45.3909C45.3888 18.0635 45.3868 18.0491 45.3847 18.0347C45.2597 17.1773 44.9423 16.3592 44.4562 15.6419C39.5763 9.34715 32.6669 11.3363 29.9884 12.1074C29.7222 12.184 29.4979 12.2486 29.3214 12.2919C27.175 12.8111 24.8348 11.7702 24.8348 11.7702C24.6678 12.4367 24.8652 13.1418 25.354 13.6247C24.1062 13.0038 22.8972 12.3078 21.7337 11.5405C21.7337 11.5405 20.3769 12.9834 21.3843 15.4792C20.769 15.3304 20.2063 15.0159 19.7572 14.5699C19.5515 16.5423 20.0975 18.5196 21.2862 20.107C21.6695 20.6169 22.1103 21.081 22.5999 21.49C23.2322 22.0188 23.9264 22.4687 24.6673 22.83C24.8922 22.9401 25.1148 23.0454 25.354 23.1459C28.436 24.4739 31.2094 24.7491 34.4182 24.8783C39.2302 25.0745 41.9629 23.8255 43.4847 22.5501C43.9387 22.1757 44.341 21.7429 44.6812 21.2627C44.6876 21.2537 44.6932 21.2441 44.6979 21.234ZM22.8128 30.078C22.8128 30.078 23.9207 25.3114 25.3564 23.1578C25.1243 23.0573 24.8946 22.9521 24.6817 22.8468C23.9364 22.4848 23.2381 22.0332 22.6023 21.502C22.1127 21.093 21.6719 20.6289 21.2886 20.1189C20.3171 23.7489 20.3793 27.1085 22.8128 30.078ZM45.4756 41.2646C46.2915 39.5728 46.4949 38.2448 46.5882 36.6703C46.74 34.388 46.5251 32.0961 45.9517 29.8818C45.9517 29.8818 45.3392 35.2705 42.841 37.5054C42.7013 37.6257 42.5149 37.6767 42.3334 37.6442C42.1519 37.6117 41.9947 37.4992 41.9054 37.3379C41.257 36.1941 39.6514 34.165 37.56 34.165C36.2511 34.165 35.2724 34.5406 34.7604 34.9714C34.542 35.1533 34.2249 35.1533 34.0066 34.9714C33.4945 34.5383 32.4752 34.1243 31.1663 34.1243C29.0725 34.1243 27.5076 36.1941 26.8591 37.3379C26.7698 37.4992 26.6127 37.6117 26.4312 37.6442C26.2497 37.6767 26.0632 37.6257 25.9235 37.5054C23.4158 35.2753 22.8128 30.0875 22.8128 30.0875C22.8128 30.0875 21.7887 32.3823 22.028 36.2515C22.1213 37.8141 22.5329 39.9294 23.49 41.6426C24.0258 42.538 24.6417 43.383 25.3301 44.1671C27.5735 46.7642 30.8404 48.2504 34.2722 48.235H34.4708C37.8998 48.235 41.2761 46.9452 43.5039 44.337C44.285 43.3979 44.9472 42.3659 45.4756 41.2646Z" fill="#FFB07D"/>
<path fill-rule="evenodd" clip-rule="evenodd" d="M44.808 15.3811C45.1945 15.9445 45.4841 16.5666 45.6664 17.2213C46.0904 16.3481 46.1915 15.2501 46.2139 14.8853L46.2197 14.7613C46.2197 14.6386 46.3121 14.5375 46.4311 14.5236L46.459 14.522C46.5817 14.522 46.6829 14.6144 46.6967 14.7334L46.6981 14.7759C46.694 14.9558 46.6267 16.479 45.9972 17.6088C46.4896 17.4764 47.0066 17.4641 47.5047 17.5729C47.5876 17.5951 47.6524 17.6599 47.6746 17.7429C47.6968 17.8258 47.6731 17.9143 47.6124 17.975C47.5517 18.0357 47.4632 18.0594 47.3803 18.0371C46.9987 17.9324 46.5583 17.9792 46.1976 18.0581C50.4939 21.8288 47.1133 28.7139 46.4615 29.9361C46.9995 32.0682 47.2108 34.2696 47.0883 36.465L47.074 36.699C46.9735 38.374 46.7462 39.7451 45.9135 41.4847C45.3674 42.6232 44.6826 43.6897 43.8748 44.6601C41.6709 47.23 38.2348 48.7137 34.4708 48.7137H34.2722C30.6983 48.7295 27.2971 47.178 24.9664 44.4686C24.2566 43.6596 23.6222 42.7873 23.0713 41.8628C21.8748 39.6925 21.6068 37.2302 21.5494 36.2707C21.3541 33.0543 21.9988 30.8994 22.2671 30.1623C20.196 27.4982 19.7166 24.3282 20.7661 20.2286C19.5854 18.5706 19.0541 16.5335 19.2786 14.5053C19.3076 14.3261 19.4355 14.1788 19.6088 14.1248C19.7795 14.0749 19.9638 14.1237 20.0874 14.2516C20.2449 14.4133 20.4227 14.5541 20.6162 14.6704C20.1735 12.5312 21.3125 11.2845 21.3699 11.2247C21.5294 11.0548 21.7881 11.0245 21.9825 11.1529L22.0042 11.1653C22.0315 11.1822 22.0839 11.2159 22.1573 11.2631C22.5189 11.4955 23.3915 12.0565 24.3108 12.5695C24.2769 12.2758 24.2899 11.9785 24.349 11.6889C24.3756 11.5486 24.4633 11.4276 24.5883 11.3587C24.7192 11.2959 24.8714 11.2959 25.0023 11.3587L25.2185 11.4403C25.8218 11.6615 27.5836 12.2308 29.1826 11.8516L29.3045 11.8201C29.4547 11.7803 29.633 11.7298 29.8359 11.6721L30.2746 11.5467C33.2559 10.7071 39.9865 9.15473 44.808 15.3811ZM22.7267 32.1981V32.2028C22.5053 33.4495 22.4268 34.7171 22.4925 35.9811L22.5065 36.2181C22.6018 38.027 23.0797 39.7952 23.9088 41.4058C24.4289 42.2731 25.0263 43.0915 25.6938 43.8513C26.0498 44.2649 26.4328 44.6492 26.8392 45.0025C26.3792 44.2498 26.0677 43.4776 25.8589 42.8176C25.8193 42.6913 25.8895 42.5569 26.0157 42.5173C26.1419 42.4776 26.2763 42.5478 26.316 42.674C26.6394 43.6996 27.2254 45.0136 28.257 46.0515C28.8302 46.41 29.4342 46.7156 30.0612 46.965C29.6431 46.3363 29.3172 45.5044 29.0917 44.4758C29.0677 44.3904 29.093 44.2988 29.1574 44.2377C29.2217 44.1766 29.3145 44.1562 29.3986 44.1845C29.4733 44.2097 29.5301 44.2698 29.5518 44.3443L29.5583 44.3729C29.8536 45.7154 30.313 46.6872 30.9274 47.2691C31.3435 47.3966 31.7678 47.5 32.1981 47.5786C31.7829 46.5025 31.8343 44.8488 31.8435 44.6122C31.8498 44.4847 31.9551 44.3847 32.0828 44.3849C32.2149 44.3849 32.322 44.492 32.322 44.6242L32.3167 44.8053C32.2995 45.7114 32.4098 47.0343 32.7684 47.668C33.1542 47.7179 33.544 47.7481 33.9366 47.7579L34.1864 47.7616C34.5959 46.3841 34.4347 44.4337 34.3234 43.0868L34.3225 43.076V42.9587C34.3156 42.8732 34.3549 42.7906 34.4255 42.7419C34.4961 42.6933 34.5874 42.686 34.6648 42.7228C34.7423 42.7596 34.7942 42.835 34.801 42.9204V43.0377L34.8333 43.427C34.9381 44.7269 35.0379 46.4375 34.6855 47.7595C35.2885 47.7499 35.8813 47.6994 36.4597 47.6098C36.7997 46.6652 36.9293 45.6559 36.8374 44.6529C36.8208 44.5207 36.9146 44.4002 37.0467 44.3837C37.1789 44.3672 37.2994 44.4609 37.3159 44.5931C37.4133 45.5798 37.3066 46.5734 37.0054 47.5128C37.6403 47.3855 38.2556 47.2102 38.8451 46.9894C39.7438 45.8914 39.9888 43.5959 40.0507 42.4254L40.0581 42.2696C40.0581 42.204 40.0849 42.1413 40.1324 42.096C40.1799 42.0508 40.2439 42.027 40.3094 42.0303C40.4369 42.0367 40.5369 42.142 40.5367 42.2696L40.5238 42.5065C40.4497 43.7278 40.2286 45.4734 39.5896 46.6798L39.6625 46.6465C40.0984 46.4431 40.5171 46.2133 40.9161 45.9583C41.6084 45.1389 42.1285 44.1848 42.4414 43.1526C42.4616 43.0922 42.505 43.0423 42.562 43.014C42.6191 42.9857 42.685 42.9813 42.7453 43.0018C42.8698 43.0438 42.9371 43.1785 42.8961 43.3033C42.7112 43.9102 42.4588 44.4916 42.1451 45.0371C42.501 44.7257 42.8336 44.3898 43.1401 44.0307C43.8978 43.1233 44.5408 42.1259 45.0544 41.0612C45.7962 39.5197 46.0125 38.315 46.1102 36.7945L46.1193 36.6464C46.2051 35.2217 46.1522 33.792 45.9613 32.3775L45.9008 32.6095C45.4308 34.3701 44.591 36.5767 43.1545 37.8619C42.9133 38.0786 42.5863 38.1729 42.2668 38.118C41.9365 38.0648 41.6484 37.864 41.4843 37.5724C40.7186 36.2204 39.2302 34.6436 37.5552 34.6436C36.3277 34.6436 35.4639 35.0025 35.0642 35.3375C34.6675 35.6644 34.0947 35.6644 33.6979 35.3375C33.2935 34.9953 32.389 34.6005 31.1615 34.6005C29.1887 34.6005 27.7372 36.7922 27.3379 37.463L27.2755 37.57C27.1119 37.862 26.8236 38.0631 26.493 38.1156C26.1736 38.1701 25.8467 38.0758 25.6053 37.8596C24.0093 36.4382 23.1574 33.964 22.7267 32.1981ZM29.2456 41.945C29.2318 41.826 29.1306 41.7336 29.0079 41.7336C28.9423 41.7335 28.8796 41.7604 28.8344 41.8078C28.7891 41.8553 28.7654 41.9193 28.7686 41.9848C28.7902 42.4132 28.8285 42.8439 28.8811 43.2578C28.8957 43.3787 28.9987 43.4693 29.1204 43.4684L29.1491 43.478C29.2798 43.4606 29.3719 43.3408 29.3549 43.21C29.3046 42.8056 29.2688 42.3892 29.2472 41.9729L29.2456 41.945ZM28.704 37.8931C28.8157 37.9638 28.8489 38.1116 28.7782 38.2233C28.574 38.5632 28.3106 38.8638 28.0005 39.111C27.5461 39.4777 26.9835 39.6846 26.3997 39.6997C26.2841 39.7002 26.1688 39.6898 26.0551 39.6686C25.58 39.5938 25.1598 39.3184 24.9018 38.9124C24.8306 38.8014 24.8627 38.6537 24.9736 38.5822C25.0271 38.5473 25.0924 38.5352 25.1549 38.5487C25.2173 38.5622 25.2718 38.6001 25.3062 38.654C25.4913 38.9467 25.7942 39.1448 26.1365 39.1972C26.7027 39.2676 27.2726 39.0985 27.7086 38.7306C27.9738 38.5175 28.199 38.2591 28.3738 37.9672C28.4445 37.8556 28.5924 37.8224 28.704 37.8931ZM43.8484 38.9052C43.9198 38.7936 43.8871 38.6452 43.7754 38.5738C43.6638 38.5025 43.5154 38.5351 43.444 38.6468C43.0253 39.312 42.1088 39.4101 41.2641 38.8861L41.2359 38.8696C41.1681 38.836 41.0876 38.8362 41.0193 38.8717C40.9413 38.9123 40.8918 38.9924 40.8904 39.0804C40.8891 39.1683 40.9361 39.2499 41.0129 39.2929C41.4105 39.5478 41.8711 39.687 42.3433 39.6949C42.9485 39.7128 43.5192 39.4134 43.8484 38.9052ZM43.1531 23.4116L43.1336 23.4252C41.6781 24.4177 39.2523 25.3904 35.3897 25.3904C35.0714 25.3904 34.7412 25.3904 34.4014 25.3688L33.9767 25.3507C30.7532 25.204 28.2768 24.8708 25.5559 23.7612C24.3652 25.7847 23.4373 29.561 23.3013 30.1264L23.3234 30.2821C23.4804 31.3352 24.2089 35.3244 26.2322 37.1441C26.2598 37.1662 26.2954 37.1757 26.3303 37.1704C26.3735 37.1612 26.4108 37.1343 26.4332 37.0962L26.4942 36.9904C27.0296 36.0778 28.6894 33.641 31.1519 33.641C32.6379 33.641 33.753 34.1363 34.3009 34.5981C34.3424 34.6304 34.4006 34.6304 34.4421 34.5981C35.1217 34.0238 36.2846 33.6816 37.5528 33.6816C40.2424 33.6816 41.9916 36.5267 42.3146 37.0962C42.3373 37.135 42.3757 37.1621 42.4199 37.1704C42.4545 37.1763 42.4899 37.1657 42.5156 37.1417C44.6904 35.1965 45.3774 30.5725 45.4674 29.9029C45.2276 26.8615 44.1279 24.7336 43.1531 23.4116ZM21.5303 21.1478L21.5282 21.1562L21.5284 21.1564C20.9177 23.9474 21.0973 26.1929 22.1072 28.1527C21.9125 26.7356 22.0088 25.2862 22.3989 23.8948C22.4433 23.7741 22.5753 23.7101 22.6976 23.7501C22.82 23.79 22.8888 23.9195 22.8535 24.0432C22.443 25.5533 22.3874 27.1314 22.683 28.6557L22.7634 28.3667C23.1704 26.922 23.8456 24.8125 24.6646 23.3713L24.4495 23.2727C23.6738 22.8934 22.9466 22.4218 22.284 21.8681C22.0181 21.6458 21.7658 21.4081 21.5284 21.1564L21.5303 21.1478ZM45.9159 19.1091V19.1546C45.8974 19.4532 45.8501 19.748 45.7753 20.035C45.7838 20.1187 45.7704 20.2048 45.734 20.284C45.6964 20.3659 45.6574 20.447 45.6173 20.5275C45.4866 20.8674 45.3157 21.1923 45.1071 21.4948C45.0994 21.5101 45.0908 21.5235 45.0818 21.5373C45.0768 21.5452 45.0716 21.5532 45.0664 21.5618C44.7878 21.9549 44.4699 22.3184 44.1178 22.6465C44.0536 22.7127 43.9883 22.778 43.922 22.8422L43.913 22.83C44.9116 24.1982 45.6312 25.7463 46.0341 27.3858C46.0991 25.933 45.9421 24.4743 45.5643 23.0608L45.5115 22.8683C45.4698 22.7428 45.5379 22.6072 45.6634 22.5656C45.789 22.524 45.9245 22.592 45.9661 22.7176C46.4126 24.267 46.5966 25.8742 46.5161 27.4733L46.5723 27.3204C47.4132 24.9988 48.1309 21.4394 45.9159 19.1091ZM29.7103 12.6931L30.5714 12.4478C33.5488 11.6103 39.6362 10.2103 44.0758 15.9434C44.4884 16.5644 44.7664 17.2643 44.8926 17.9982L44.9119 18.1206L44.9132 18.1328C44.9452 18.3491 44.9624 18.5671 44.9649 18.7854C44.9659 18.8853 44.9639 18.9853 44.9587 19.0852V19.1067C44.9358 19.4643 44.8606 19.8148 44.7365 20.1475C44.417 20.7801 44.01 21.3637 43.5279 21.8814C43.4163 21.9889 43.3005 22.0922 43.1808 22.1911C41.8432 23.311 39.2446 24.6031 34.4397 24.4069C30.9725 24.2681 28.4049 23.9475 25.5479 22.7152C25.3181 22.6147 25.0932 22.5118 24.8826 22.4089C24.1761 22.0643 23.5141 21.6352 22.9109 21.1311C22.7805 21.0218 22.6536 20.9084 22.5306 20.7911L22.4704 20.7332L22.4063 20.67L22.3467 20.6101L22.2317 20.4906L22.115 20.3641L22.0524 20.2938L21.9924 20.2251L21.9402 20.1637L21.8425 20.0456L21.7561 19.9371L21.6714 19.827C20.7459 18.5784 20.2302 17.0737 20.195 15.5199C20.5367 15.7176 20.9061 15.8628 21.291 15.9506C21.4639 15.9861 21.6423 15.9235 21.7552 15.7879C21.8656 15.654 21.8949 15.4709 21.8318 15.3093C21.2322 13.8276 21.5544 12.787 21.8289 12.2616L21.8629 12.1986C22.9221 12.8867 24.0216 13.5107 25.1554 14.0674C25.3706 14.1648 25.6247 14.0906 25.7536 13.8927C25.8846 13.6934 25.8489 13.4281 25.6699 13.2706C25.4517 13.0505 25.315 12.7627 25.2823 12.4546C26.1676 12.7465 27.8354 13.1509 29.4386 12.7657C29.5195 12.7455 29.6102 12.721 29.7103 12.6931ZM24.9923 16.6596L25.1036 16.7706C25.8429 17.4963 31.1012 22.2862 39.1058 20.4659C39.2379 20.4361 39.3692 20.5192 39.3989 20.6513C39.4286 20.7835 39.3456 20.9147 39.2135 20.9445C38.0066 21.2174 36.773 21.3547 35.5356 21.3536C31.4904 21.3412 27.602 19.7873 24.6625 17.0082C24.572 16.9111 24.5773 16.7589 24.6745 16.6684C24.7641 16.5849 24.9006 16.583 24.9923 16.6596ZM43.8019 19.0547C43.7795 18.9722 43.7147 18.9079 43.632 18.886C43.5493 18.8642 43.4612 18.8881 43.401 18.9488C42.9176 19.4346 41.915 19.839 40.7832 20.0017C40.651 20.0109 40.5514 20.1256 40.5606 20.2577C40.5699 20.3899 40.6845 20.4895 40.8167 20.4802L40.8502 20.4826C42.0993 20.296 43.1808 19.8509 43.7407 19.2862C43.801 19.2255 43.8243 19.1373 43.8019 19.0547ZM29.2975 15.606C32.3329 17.322 35.8647 17.9461 39.3044 17.3743C39.3672 17.364 39.4316 17.3791 39.4833 17.4164C39.5349 17.4537 39.5696 17.51 39.5796 17.5729C39.5899 17.6358 39.5748 17.7002 39.5375 17.7518C39.5002 17.8035 39.4439 17.8381 39.381 17.8481C38.5212 17.9898 37.6513 18.0611 36.7799 18.0611C34.0743 18.0535 31.4157 17.3524 29.0582 16.0247C28.9425 15.9587 28.9024 15.8114 28.9684 15.6957C29.0345 15.5801 29.1818 15.5399 29.2975 15.606ZM37.56 14.924C36.0753 14.8823 34.6047 14.6227 33.1954 14.1535C33.0706 14.1125 32.936 14.1798 32.8939 14.3043C32.8735 14.3646 32.8779 14.4305 32.9061 14.4876C32.9344 14.5446 32.9843 14.588 33.0447 14.6082C34.4987 15.0925 36.0161 15.3602 37.548 15.4026H37.56C37.6922 15.4026 37.7993 15.2955 37.7993 15.1633C37.7993 15.0312 37.6922 14.924 37.56 14.924Z" fill="#372168"/>
<path d="M34.6144 36.6153C34.3501 36.6153 34.1359 36.4011 34.1359 36.1367V35.0169C34.1359 34.7526 34.3501 34.5383 34.6144 34.5383C34.8787 34.5383 35.093 34.7526 35.093 35.0169V36.1367C35.093 36.4011 34.8787 36.6153 34.6144 36.6153Z" fill="#372168"/>
<path d="M34.608 33.3721C34.0854 33.3791 33.594 33.124 33.2991 32.6925C33.1736 32.4983 33.2293 32.239 33.4235 32.1135C33.6178 31.9879 33.8771 32.0436 34.0026 32.2379C34.1482 32.4274 34.3744 32.5374 34.6134 32.535C34.8523 32.5327 35.0763 32.4182 35.2182 32.2259C35.3384 32.0277 35.5966 31.9645 35.7949 32.0848C35.9931 32.205 36.0563 32.4632 35.936 32.6614C35.6465 33.1126 35.144 33.3815 34.608 33.3721Z" fill="#372168"/>
<path d="M39.593 30.492C40.653 30.492 40.6554 28.8409 39.593 28.8409C38.5306 28.8409 38.5282 30.492 39.593 30.492Z" fill="#372168"/>
<path d="M29.7895 30.492C30.8519 30.492 30.8543 28.8409 29.7895 28.8409C28.7246 28.8409 28.7246 30.492 29.7895 30.492Z" fill="#372168"/>
<path d="M31.7885 28.403C31.6648 28.4038 31.5456 28.3566 31.4559 28.2714C29.7115 26.5964 28.0269 28.0943 27.8403 28.2714C27.6475 28.4401 27.356 28.427 27.179 28.2418C27.0021 28.0565 27.0025 27.7647 27.1799 27.5798C28.0341 26.7591 30.1662 25.7038 32.1187 27.5798C32.2105 27.6677 32.2636 27.7884 32.2663 27.9155C32.269 28.0425 32.2211 28.1654 32.1331 28.257C32.0428 28.3504 31.9184 28.4031 31.7885 28.403Z" fill="#372168"/>
<path d="M41.7356 27.2999C41.6116 27.3 41.4923 27.252 41.403 27.1659C39.661 25.4909 37.974 26.9912 37.7898 27.1659C37.5988 27.3489 37.2956 27.3425 37.1126 27.1515C36.9296 26.9606 36.936 26.6574 37.127 26.4743C37.9812 25.656 40.1133 24.6007 42.0658 26.4743C42.2079 26.6093 42.2533 26.8171 42.1806 26.999C42.1078 27.1809 41.9315 27.3001 41.7356 27.2999Z" fill="#372168"/>
</g>
<path d="M34.5 0C15.4462 0 0 15.4462 0 34.5H2C2 16.5507 16.5507 2 34.5 2V0ZM69 34.5C69 15.4462 53.5538 0 34.5 0V2C52.4493 2 67 16.5507 67 34.5H69ZM34.5 69C53.5538 69 69 53.5538 69 34.5H67C67 52.4493 52.4493 67 34.5 67V69ZM0 34.5C0 53.5538 15.4462 69 34.5 69V67C16.5507 67 2 52.4493 2 34.5H0ZM34.5 2.95714C51.9207 2.95714 66.0429 17.0794 66.0429 34.5H68.0429C68.0429 15.9748 53.0252 0.957138 34.5 0.957138V2.95714ZM2.95716 34.5C2.95716 17.0794 17.0794 2.95714 34.5 2.95714V0.957138C15.9748 0.957138 0.957158 15.9748 0.957158 34.5H2.95716ZM34.5 66.0429C17.0794 66.0429 2.95716 51.9206 2.95716 34.5H0.957158C0.957158 53.0252 15.9748 68.0429 34.5 68.0429V66.0429ZM66.0429 34.5C66.0429 51.9206 51.9207 66.0429 34.5 66.0429V68.0429C53.0252 68.0429 68.0429 53.0252 68.0429 34.5H66.0429Z" fill="url(#paint0_linear)"/>
<circle cx="56" cy="60" r="10" fill="#67DA87" stroke="white" stroke-width="4"/>
<defs>
<linearGradient id="paint0_linear" x1="16.5" y1="1" x2="52.5" y2="68" gradientUnits="userSpaceOnUse">
<stop stop-color="#633289"/>
<stop offset="1" stop-color="#EB42DB"/>
</linearGradient>
</defs>
</svg>
