<svg width="351" height="477" viewBox="0 0 351 477" fill="none" xmlns="http://www.w3.org/2000/svg">
<path fill-rule="evenodd" clip-rule="evenodd" d="M333.921 156.289C336.584 157.02 338.15 159.772 337.419 162.435L291.605 329.31C290.874 331.973 288.122 333.539 285.46 332.808C282.797 332.077 281.231 329.325 281.962 326.662L327.776 159.787C328.507 157.124 331.258 155.558 333.921 156.289Z" fill="#18345D"/>
<path d="M184.207 331.639H302.178" stroke="#18345D" stroke-width="10" stroke-linecap="round"/>
<path d="M207.306 471.885L240.717 332.052L280.316 471.885" stroke="#18345D" stroke-width="10" stroke-linecap="round" stroke-linejoin="round"/>
<path d="M97.6603 468.265H186.058C187.671 468.265 188.961 469.539 188.961 471.132C188.961 472.726 187.671 474 186.058 474H83.5311H10.5294C8.93626 474 7.66174 472.726 7.66174 471.132C7.66174 469.539 8.93626 468.265 10.5294 468.265H97.6603Z" fill="#633984"/>
<path d="M9.67267 468.327C9.54222 468.071 9.44348 467.794 9.38231 467.5V467.436C9.38231 467.118 9.31859 466.799 9.38231 466.48C9.44604 466.098 9.44604 465.779 9.57349 465.397C10.4019 462.529 12.6323 460.108 14.098 458.77C14.2892 458.578 14.4166 458.515 14.6078 458.387C17.4117 456.667 20.2794 455.073 23.2745 453.735C29.1373 451.059 42.1373 445.578 46.0245 443.603C51.0589 441.054 58.005 436.72 65.2697 428.946C65.8432 428.5 66.4805 428.309 67.1815 428.309L110.961 428.564C112.809 428.564 114.275 430.093 114.147 432.005L113.736 447.184C115.589 446.308 117.474 445.338 119.595 444.113C122.608 442.392 126.84 439.588 131.585 435.382C134.213 433.088 136.906 430.794 139.535 428.5L179.223 427.99L187.512 468.809C187.034 468.466 186.444 468.265 185.803 468.265H97.4053H10.2745C10.0678 468.265 9.86652 468.286 9.67267 468.327Z" fill="#200E2E"/>
<path opacity="0.176986" d="M84.1972 468.265H10.3715C10.2064 467.973 10.0834 467.652 10.0119 467.309V467.245C10.0119 466.926 9.94813 466.608 10.0119 466.289C10.0756 465.907 10.0756 465.588 10.203 465.206C11.0315 462.338 13.2619 459.917 14.7276 458.578C14.9187 458.387 15.0462 458.324 15.2374 458.196C18.0413 456.475 20.9089 454.882 23.904 453.544C29.7668 450.868 42.7668 445.387 46.6541 443.412C51.6884 440.863 58.6345 436.529 65.8992 428.755C66.4728 428.309 67.11 428.118 67.811 428.118L111.591 428.372C113.439 428.372 114.282 429.715 114.155 431.627L113.725 447.512C109.341 449.541 104.961 451.168 97.8258 454.564C94.7669 456.029 91.8356 457.686 88.9679 459.534C87.5659 460.809 85.1444 463.422 84.3797 466.48C84.2522 466.99 84.2522 467.5 84.1885 467.946C84.1885 468.053 84.1915 468.16 84.1972 468.265H84.1972Z" fill="#633289"/>
<path d="M105.329 437.183C105.111 437.208 104.889 437.22 104.665 437.22L63.2835 436.777H59.939C56.6511 436.777 53.8734 434.242 53.7033 430.486C53.3065 422.909 52.7963 412.936 52.1728 401.41C50.4721 372.334 49.5651 363.073 48.5448 340.667C48.3747 336.912 48.2046 333.544 48.0913 330.371C47.6378 315.283 46.4473 301.166 44.1231 282.71C42.8193 272.478 42.1958 266.132 42.1391 260.757C42.0824 255.771 43.3862 250.849 45.8805 246.77C47.1276 244.762 48.5448 243.014 50.2454 241.524C54.6103 237.704 60.4492 234.466 65.0975 234.79C77.1456 234.846 89.1937 234.853 101.242 234.897C103.766 234.298 106.581 234.002 109.687 234.009L115.729 234.073C115.695 234 141.133 233.866 192.045 233.669C207.816 221.289 225.242 216.098 244.323 218.095C251.938 218.893 258.839 221.066 265.024 224.616C271.852 228.481 277.813 234.012 282.909 241.21C286.051 244.495 295.483 259.491 293.61 282.33C293.247 286.536 292.462 295.903 287.387 304.825C282.07 314.129 275.545 320.947 264.609 324.835C254.942 328.276 243.644 329.487 231.923 328.148C215.409 325.005 196.309 322.392 174.624 320.31C180.48 336.336 184.274 346.41 186.006 350.531C188.604 356.648 195.656 383.061 198.305 403.295C199.601 413.191 199.149 421.941 196.948 429.545C195.606 434.182 191.358 437.372 186.531 437.367L132.294 437.31L107.946 437.183H105.329Z" fill="#633289"/>
<path opacity="0.176986" d="M102.121 234.9C96.7461 236.047 92.6448 238.517 89.8169 242.31C83.7119 250.497 85.4707 258.369 85.4707 263.212V263.531C85.5311 268.82 86.1957 275.065 87.5249 285.134C90.0021 303.296 91.2708 317.124 91.7542 332.036C91.875 335.095 92.0563 338.472 92.2375 342.168C93.2646 364.153 94.2917 373.266 96.1042 401.943C96.8293 413.286 97.373 423.036 97.7355 430.556C97.9168 434.252 100.877 437.183 104.381 437.183H105.348C105.123 437.214 104.896 437.23 104.665 437.23L63.2835 436.777H59.939C56.6511 436.777 53.7033 434.055 53.7033 429.87C53.3065 422.317 52.7963 412.376 52.1728 400.886C50.4721 371.901 49.5651 362.67 48.5448 340.334C48.3747 336.59 48.2046 333.234 48.0913 330.07C47.6378 315.029 46.4473 300.957 44.1231 282.559C42.8193 272.36 42.1958 266.033 42.1391 260.675C42.0824 255.705 43.3862 250.799 45.8805 246.732C47.1276 244.731 48.5448 242.988 50.2454 241.503C54.6103 237.694 60.4492 234.467 65.0975 234.789C77.4386 234.847 89.7797 234.853 102.121 234.9Z" fill="#152C50"/>
<path d="M228.404 109.72C221.431 113.676 215.273 120.437 213.92 123.051C202.703 144.721 193.383 142.422 191.899 147.256C189.678 154.488 198.207 156.666 198.207 156.666C202.172 157.645 205.187 158.39 207.251 158.901L204.736 179.394L204.677 180.121L200.235 216.02L199.393 223.031C199.288 223.603 199.268 224.116 199.234 224.701C199.188 225.357 199.154 225.942 199.108 226.598C199.021 228.281 199.09 229.919 199.302 231.583C199.398 232.266 199.423 232.935 199.591 233.631C259.098 244.544 289.804 244.807 291.709 234.421L299.412 171.886L308.529 172.917C308.529 172.917 318.486 173.707 318.458 166.1C318.44 161.015 307.567 159.824 302.531 135.386C301.839 132.03 296.159 121.373 288.501 115.19C288.259 114.994 288.014 114.803 287.768 114.616C282.52 110.538 276.139 107.778 269.073 106.908L252.453 104.894C243.749 103.786 235.393 105.663 228.404 109.72Z" fill="#DD318E"/>
<path opacity="0.176986" d="M219.455 116.472C216.634 119.151 214.569 121.7 213.852 123.084C202.635 144.755 193.383 142.422 191.899 147.256C189.678 154.488 198.107 156.628 198.107 156.628L207.02 158.837L209.453 139.008L209.618 137.709C210.607 129.445 214.186 122.13 219.455 116.472Z" fill="#444444"/>
<path d="M267.169 76.3685C267.317 76.2676 267.463 76.1612 267.609 76.0491C270.24 73.9857 272.135 70.3693 271.423 66.4981C270.777 62.7747 267.718 59.3844 264.242 59.0206C262.289 58.7933 256.89 59.2181 257.18 57.4909L260.264 39.2122C260.457 38.0608 259.703 36.9419 258.548 36.7482C256.022 36.2795 253.578 35.5967 251.007 34.4737C250.719 34.3891 250.432 34.3045 250.144 34.2199C247.776 33.4679 234.403 29.788 225.181 38.2414C224.353 38.9313 223.591 39.7689 222.823 40.7511C221.058 42.996 219.928 45.7024 219.517 48.5841L217.677 61.4071C217.551 62.7063 217.424 64.0056 217.443 65.3109C217.567 81.623 222.514 93.8623 228.413 95.4153C229.13 95.663 232.95 96.4762 237.692 96.0962C238.127 96.0426 237.768 96.1695 244.058 94.9513L243.612 104.822C246.575 104.499 249.629 104.516 252.727 104.911L265.123 106.414L265.746 91.3908L266.015 84.8795L267.169 76.3685ZM201.24 208.255L204.439 182.38L204.733 179.951L204.778 179.391L206.234 167.518L207.272 158.925L201.51 157.5L173.241 209.416C171.304 209.494 169.057 209.617 166.421 209.784C162.311 209.155 158.892 208.747 156.165 208.56C145.12 207.802 135.685 206.774 123.738 211.682C101.958 220.627 99.5881 225.876 116.629 227.427L151.134 232.313C151.541 232.534 151.955 232.698 152.377 232.799C152.377 232.799 202.824 239.788 303.718 253.766C307.776 254.329 311.865 252.973 314.783 250.097C316.187 248.714 317.46 245.992 318.601 241.932C321.535 233.442 318.677 220.243 313.325 194.631C311.62 186.51 309.961 179.111 308.346 172.514L252.338 166.405C255.06 177.712 258.894 204.217 260.467 208.425C260.472 208.428 260.477 208.431 260.481 208.434C244.123 208.229 224.511 208.072 201.24 208.255Z" fill="#F2A98A"/>
<path d="M243.806 100.355L251.734 92.8716L244.035 94.9446L243.806 100.355Z" fill="#482D1F"/>
<path d="M255.187 63.0714C255.56 62.5829 256.962 60.8836 259.231 59.7442C259.455 59.6081 261.158 58.8794 263.112 59.1064C266.588 59.4698 269.645 62.87 270.289 66.6056C271 70.4895 269.175 74.1221 266.544 76.1938C264.512 77.7934 262.269 78.2136 260.916 78.3373C260.569 80.7808 260.127 83.4258 259.59 86.2724C265.219 86.7301 270.489 85.0253 275.402 81.1582C277.431 79.5704 282.852 75.1427 285.512 67.1818C285.832 66.1667 286.457 64.2293 286.849 61.7737C297.882 63.5872 307.556 59.9663 311.88 53.4421C315.918 47.2937 314.957 39.0766 314.82 37.9131C313.447 26.2055 303.211 24.8276 302.34 24.6763C302.34 24.6763 288.367 17.3874 273.25 39.2271C273.24 39.241 273.23 39.255 273.221 39.269C269.922 38.5155 265.839 38.1538 259.726 36.8707C257.491 36.4137 254.285 35.3781 250.334 34.195C250.044 34.1829 246.645 33.3229 246.357 33.2382C244.899 33.023 240.081 31.8415 233.345 33.7389C226.609 35.6362 223.65 39.547 223.717 39.739C223.847 40.1081 226.858 42.0425 228.718 42.7747C233.942 44.811 238.742 44.7933 241.737 44.4821C242.242 46.3212 243.025 48.4629 244.171 50.6197C247.467 57.0114 252.255 60.7747 255.301 62.72C255.263 62.8371 255.225 62.9543 255.187 63.0714Z" fill="#482D1F"/>
<path d="M222.479 61.4115C222.541 60.4156 221.865 59.5682 220.878 59.4288C220.28 59.2974 219.659 59.627 219.207 60.6149C218.205 63.0352 220.039 67.166 221.353 65.8237C222.162 64.992 222.336 62.7779 222.479 61.4115ZM238.403 63.4226C238.465 62.4267 237.79 61.5793 236.802 61.4398C236.204 61.3085 235.583 61.638 235.131 62.6259C234.129 65.0462 235.964 69.177 237.277 67.8348C238.087 67.0031 238.26 64.7889 238.403 63.4226Z" fill="#482D1F"/>
<path d="M226.054 62.7234L223.904 69.4641C223.71 70.3327 224.194 71.2783 225.024 71.4606C225.506 71.607 225.821 71.6761 227.089 71.9303C227.656 72.0439 228.044 72.1243 228.501 72.2247C228.893 72.3108 229.281 72.0629 229.367 71.6709C229.453 71.279 229.205 70.8915 228.813 70.8054C228.346 70.7027 227.95 70.6207 227.375 70.5055C226.157 70.2615 225.862 70.1966 225.388 70.0549C225.357 70.0459 225.289 69.9145 225.306 69.8409L227.439 63.1651C227.561 62.7828 227.35 62.374 226.967 62.2521C226.585 62.1301 226.176 62.3411 226.054 62.7234Z" fill="#482D1F"/>
<path d="M228.613 76.7403C229.121 76.689 230.39 76.3983 230.696 75.6517C230.73 75.4965 230.848 75.2785 230.798 75.186C230.613 74.7384 229.665 74.8558 228.397 74.8212C226.148 74.7338 224.322 74.3326 224.322 74.3326C224.322 74.3326 224.64 75.786 224.893 76.2484C225.432 77.3433 227.801 76.8873 228.613 76.7403Z" fill="#482D1F"/>
<path d="M249.624 62.0126C248.885 58.1359 245.911 54.8805 241.812 53.9799C236.325 52.7743 230.9 56.245 229.694 61.732C229.677 61.8114 229.66 61.8907 229.645 61.97C229.557 61.9391 229.463 61.9191 229.366 61.9116L227.321 61.7546C227.589 56.8642 224.284 52.3603 219.345 51.2752C213.858 50.0696 208.433 53.5403 207.227 59.0273C206.022 64.5143 209.492 69.9397 214.979 71.1453C220.291 72.3124 225.544 69.0975 226.969 63.9136L229.199 64.085C229.287 64.0917 229.373 64.0879 229.456 64.0745C229.524 68.6871 232.745 72.8172 237.446 73.85C242.933 75.0556 248.359 71.5849 249.564 66.0979C249.705 65.4574 249.782 64.8177 249.8 64.1855L255.223 63.6724C255.822 63.6157 256.262 63.084 256.205 62.4847C256.148 61.8855 255.617 61.4457 255.017 61.5024L249.624 62.0126ZM225.013 62.7076C224.999 62.7802 224.984 62.8528 224.968 62.9254C224.021 67.2366 219.758 69.9636 215.447 69.0164C211.136 68.0691 208.409 63.8063 209.356 59.4951C210.303 55.1839 214.566 52.4569 218.877 53.4041C223.023 54.315 225.704 58.292 225.061 62.4296C225.037 62.5064 225.022 62.587 225.015 62.6705C225.014 62.6829 225.014 62.6953 225.013 62.7076ZM237.914 71.7211C233.603 70.7738 230.876 66.511 231.823 62.1998C232.77 57.8886 237.033 55.1616 241.344 56.1088C245.656 57.0561 248.383 61.3189 247.435 65.6301C246.488 69.9413 242.225 72.6684 237.914 71.7211Z" fill="#482D1F"/>
<path d="M267.662 215.754C268.142 216.116 268.825 216.02 269.188 215.54C269.55 215.059 269.454 214.376 268.974 214.013L260.712 207.784C260.232 207.422 259.548 207.518 259.186 207.998C258.823 208.479 258.919 209.162 259.4 209.525L267.662 215.754ZM251.517 167.071C251.669 167.653 252.264 168.002 252.847 167.851C253.429 167.699 253.778 167.104 253.627 166.521L247.347 142.41C247.196 141.828 246.601 141.479 246.018 141.63C245.436 141.782 245.086 142.377 245.238 142.96L251.517 167.071Z" fill="#482D1F"/>
<path opacity="0.2" d="M201.219 208.464L204.716 180.194L204.776 179.466L207.297 158.918L201.532 157.489L173.283 209.558L201.219 208.464Z" fill="#8C2A00"/>
<path d="M173.68 320.826L155.195 301.428C154.831 301.046 154.845 300.441 155.227 300.077C155.61 299.713 156.215 299.727 156.579 300.11L175.064 319.507C175.428 319.889 175.413 320.494 175.031 320.858C174.649 321.222 174.044 321.208 173.68 320.826Z" fill="#482D1F"/>
<path fill-rule="evenodd" clip-rule="evenodd" d="M10.0116 154.27H74.5612C78.3666 154.27 81.8422 156.43 83.5273 159.842L115 223.568H141.308C145.409 223.568 148.733 226.892 148.733 230.993C148.733 235.093 145.409 238.417 141.308 238.417H106.242H105.834H39.2552C35.3378 238.417 31.7812 236.13 30.1562 232.566L0.912535 168.418C-2.10632 161.796 2.73394 154.27 10.0116 154.27Z" fill="#C5C2FB"/>
</svg>
