<svg width="23" height="22" viewBox="0 0 23 22" fill="none" xmlns="http://www.w3.org/2000/svg">
<path d="M12.3175 3.2941C13.4514 1.89866 15.7073 2.5917 15.8622 4.38306L16.0808 6.91138C16.1467 7.67272 16.6406 8.32999 17.3535 8.60505L19.7212 9.51848C21.3987 10.1657 21.4367 12.5254 19.7809 13.2262L17.4439 14.2154C16.7402 14.5133 16.2677 15.1862 16.2264 15.9492L16.0893 18.4833C15.9922 20.2787 13.7597 21.044 12.5815 19.6858L10.9185 17.7689C10.4178 17.1916 9.63184 16.9502 8.89338 17.1467L6.44099 17.7994C4.70343 18.2619 3.28569 16.3752 4.21331 14.8349L5.52256 12.6609C5.91681 12.0063 5.90357 11.1843 5.48844 10.5427L4.10986 8.412C3.13311 6.90239 4.48936 4.97102 6.24091 5.37727L8.71305 5.95065C9.45746 6.12331 10.2352 5.85668 10.7171 5.26362L12.3175 3.2941Z" fill="#31B4DD"/>
</svg>
