<svg width="156" height="194" viewBox="0 0 156 194" fill="none" xmlns="http://www.w3.org/2000/svg">
<g filter="url(#filter0_d)">
<rect x="7" width="142" height="166" rx="10" fill="white"/>
</g>
<path d="M49.5568 24.3643H52.7038V33H54.5334V24.3643H57.6804V22.8182H49.5568V24.3643ZM59.1669 33H60.9666V25.3636H59.1669V33ZM60.0717 24.2798C60.6435 24.2798 61.1108 23.8423 61.1108 23.3054C61.1108 22.7635 60.6435 22.326 60.0717 22.326C59.495 22.326 59.0277 22.7635 59.0277 23.3054C59.0277 23.8423 59.495 24.2798 60.0717 24.2798ZM62.8173 33H64.617V28.3565C64.617 27.4169 65.2434 26.7805 66.019 26.7805C66.7797 26.7805 67.3017 27.2926 67.3017 28.0781V33H69.0666V28.2372C69.0666 27.3771 69.5787 26.7805 70.4487 26.7805C71.1745 26.7805 71.7512 27.2081 71.7512 28.1527V33H73.5559V27.8743C73.5559 26.169 72.5716 25.2642 71.1696 25.2642C70.0609 25.2642 69.2157 25.8111 68.8777 26.6612H68.7981C68.5048 25.7962 67.764 25.2642 66.7349 25.2642C65.7108 25.2642 64.9451 25.7912 64.627 26.6612H64.5375V25.3636H62.8173V33ZM78.7624 33.1491C80.5423 33.1491 81.7653 32.2791 82.0835 30.9517L80.4031 30.7628C80.1594 31.4091 79.5629 31.7472 78.7873 31.7472C77.6239 31.7472 76.8533 30.9815 76.8384 29.674H82.158V29.1222C82.158 26.4425 80.5472 25.2642 78.668 25.2642C76.4805 25.2642 75.0536 26.87 75.0536 29.2266C75.0536 31.6229 76.4606 33.1491 78.7624 33.1491ZM76.8434 28.4609C76.8981 27.4865 77.619 26.6662 78.6928 26.6662C79.7269 26.6662 80.4229 27.4219 80.4329 28.4609H76.8434ZM85.4803 22.8182H83.6806V33H85.4803V22.8182ZM87.331 33H89.1307V25.3636H87.331V33ZM88.2358 24.2798C88.8075 24.2798 89.2749 23.8423 89.2749 23.3054C89.2749 22.7635 88.8075 22.326 88.2358 22.326C87.6591 22.326 87.1918 22.7635 87.1918 23.3054C87.1918 23.8423 87.6591 24.2798 88.2358 24.2798ZM92.7811 28.5256C92.7811 27.4219 93.4473 26.7855 94.3968 26.7855C95.3265 26.7855 95.8833 27.397 95.8833 28.4162V33H97.6831V28.1378C97.688 26.3082 96.644 25.2642 95.068 25.2642C93.9245 25.2642 93.139 25.8111 92.791 26.6612H92.7015V25.3636H90.9814V33H92.7811V28.5256ZM102.893 33.1491C104.673 33.1491 105.896 32.2791 106.214 30.9517L104.534 30.7628C104.29 31.4091 103.694 31.7472 102.918 31.7472C101.755 31.7472 100.984 30.9815 100.969 29.674H106.289V29.1222C106.289 26.4425 104.678 25.2642 102.799 25.2642C100.611 25.2642 99.1845 26.87 99.1845 29.2266C99.1845 31.6229 100.591 33.1491 102.893 33.1491ZM100.974 28.4609C101.029 27.4865 101.75 26.6662 102.824 26.6662C103.858 26.6662 104.554 27.4219 104.564 28.4609H100.974Z" fill="#874FCE"/>
<line x1="57" y1="48" x2="57" y2="146" stroke="#F0F0F0" stroke-width="2"/>
<line x1="44" y1="48" x2="44" y2="146" stroke="#F0F0F0" stroke-width="2"/>
<line x1="30" y1="48" x2="30" y2="146" stroke="#F0F0F0" stroke-width="2"/>
<line x1="71" y1="48" x2="71" y2="146" stroke="#F0F0F0" stroke-width="2"/>
<line x1="85" y1="48" x2="85" y2="146" stroke="#F0F0F0" stroke-width="2"/>
<line x1="99" y1="48" x2="99" y2="146" stroke="#F0F0F0" stroke-width="2"/>
<line x1="112" y1="48" x2="112" y2="146" stroke="#F0F0F0" stroke-width="2"/>
<line x1="126" y1="48" x2="126" y2="146" stroke="#F0F0F0" stroke-width="2"/>
<rect x="26" y="78" width="33" height="9" rx="4.5" fill="#C88CC6"/>
<rect x="55" y="55" width="72" height="9" rx="4.5" fill="#AA65E1"/>
<rect x="38" y="101" width="63" height="9" rx="4.5" fill="#7C92DF"/>
<rect x="26" y="124" width="101" height="9" rx="4.5" fill="#E371C3"/>
<defs>
<filter id="filter0_d" x="0" y="0" width="156" height="194" filterUnits="userSpaceOnUse" color-interpolation-filters="sRGB">
<feFlood flood-opacity="0" result="BackgroundImageFix"/>
<feColorMatrix in="SourceAlpha" type="matrix" values="0 0 0 0 0 0 0 0 0 0 0 0 0 0 0 0 0 0 127 0"/>
<feMorphology radius="11" operator="erode" in="SourceAlpha" result="effect1_dropShadow"/>
<feOffset dy="21"/>
<feGaussianBlur stdDeviation="9"/>
<feColorMatrix type="matrix" values="0 0 0 0 0.0823529 0 0 0 0 0.145098 0 0 0 0 0.239216 0 0 0 0.11 0"/>
<feBlend mode="normal" in2="BackgroundImageFix" result="effect1_dropShadow"/>
<feBlend mode="normal" in="SourceGraphic" in2="effect1_dropShadow" result="shape"/>
</filter>
</defs>
</svg>
